<svg width='200' height='200' fill="#000000" xmlns="http://www.w3.org/2000/svg" xmlns:xlink="http://www.w3.org/1999/xlink" version="1.1" x="0px" y="0px" viewBox="0 0 100 100" enable-background="new 0 0 100 100" xml:space="preserve"><g transform="translate(0.000000,907.000000) scale(0.100000,-0.100000)"><path d="M384.468,9068.972c-7.389-0.469-20.641-2.229-29.437-3.87c-59.813-11.142-115.638-40.579-159.032-83.738   c-41.165-40.931-69.664-93.823-81.275-150.938c-3.284-16.303-3.636-20.407-4.808-56.881c-0.821-24.863-1.056-112.237-0.704-238.078   c0.469-220.722-0.117-204.302,8.561-239.252c15.716-63.448,52.19-119.977,104.262-161.494   c32.721-26.036,73.535-46.091,115.521-56.646c30.375-7.741,22.283-7.271,151.643-7.858c123.261-0.586,134.637-0.234,158.093,4.339   c57.467,11.376,108.953,37.999,150.705,77.64c48.788,46.56,77.757,100.861,89.836,168.765l2.58,14.543l0.352,203.48   c0.586,235.616,0,265.522-5.512,292.379c-18.413,89.954-77.874,166.421-161.26,207.234   c-38.702,18.999-73.065,28.264-113.762,30.492C587.245,9070.379,403.232,9070.262,384.468,9068.972z M633.101,8984.765   c46.326-10.32,91.244-35.888,119.743-68.257c26.74-30.493,41.048-58.054,50.899-98.397c2.697-10.907,3.167-15.95,4.105-45.153   c0.586-18.061,1.056-49.844,1.173-70.603v-37.881H683.062H557.104l-1.759-5.278c-5.747-16.653-21.228-30.258-40.11-35.184   c-27.326-7.037-58.171,9.147-67.084,35.184l-1.759,5.278H318.556H190.721l0.586,61.924c0.821,74.003,1.994,86.083,11.024,112.823   c19.117,56.764,59.461,102.15,113.41,127.835c23.221,11.142,46.795,18.061,66.967,19.938c5.864,0.469,61.807,0.821,124.317,0.704   l113.762-0.235L633.101,8984.765z M514.648,8514.355c7.154-3.519,12.432-8.797,16.185-15.833c2.58-4.926,3.167-7.389,3.167-15.247   c0-7.857-0.586-10.32-3.167-15.246c-3.636-7.037-9.031-12.197-16.185-15.95c-4.222-2.229-7.154-2.814-14.66-2.814   s-10.438,0.586-14.66,2.814c-7.154,3.753-12.549,8.913-16.185,15.95c-4.339,8.093-4.457,22.049-0.352,29.906   c4.808,9.266,12.314,15.599,22.4,18.883C496.353,8518.577,509.019,8517.287,514.648,8514.355z"></path><path d="M348.697,8931.871c-55.122-5.863-99.219-50.43-103.441-104.379l-0.704-9.382l23.339-0.235l23.339-0.352l0.704-7.623   c2.697-25.919,21.345-48.554,47.85-57.702c10.321-3.518,31.314-3.87,41.165-0.469c12.901,4.34,21.931,9.969,30.61,19.117   c11.845,12.549,15.95,21.579,19.234,42.924l0.704,4.34h22.987h22.987l-0.704,10.32c-2.815,37.882-27.913,74.238-63.566,91.713   c-13.956,6.803-25.332,10.086-40.462,11.728C360.543,8933.162,360.543,8933.162,348.697,8931.871z M370.042,8831.011   c14.425-8.679,6.45-30.493-10.555-28.968c-15.129,1.29-20.055,21.345-7.389,29.085   C356.907,8834.061,365.234,8834.061,370.042,8831.011z"></path><path d="M630.052,8931.402c-25.45-4.222-46.56-14.895-64.504-32.838c-19.938-19.82-31.196-44.098-33.777-72.479l-0.821-7.975   h23.456h23.339l0.821-6.686c3.636-30.962,25.215-54.418,55.943-60.868c22.87-4.926,50.313,4.34,66.146,22.283   c9.148,10.32,16.888,29.32,16.888,41.165v4.105h23.573h23.691l-0.938,9.616c-2.346,27.562-14.425,52.425-34.832,71.893   c-11.142,10.79-19.703,16.654-32.252,22.519C677.55,8931.051,650.576,8934.804,630.052,8931.402z M655.15,8832.184   c9.148-4.104,12.08-16.185,5.864-24.042c-4.808-6.099-13.253-7.976-20.524-4.457c-8.796,4.104-11.493,16.536-5.395,23.925   c3.284,3.87,8.679,6.803,12.666,6.803C649.051,8834.412,652.335,8833.474,655.15,8832.184z"></path></g></svg>